HIERARCHY
ROOT Hips
{
 OFFSET 0.000000 0.000000 0.000000
 CHANNELS 6 Xposition Yposition Zposition Yrotation Xrotation Zrotation
 JOINT Chest
 {
  OFFSET 0.000000 16.280000 -0.014500
  CHANNELS 3 Yrotation Xrotation Zrotation
  JOINT Chest2
  {
   OFFSET 0.000000 10.601900 0.029500
   CHANNELS 3 Yrotation Xrotation Zrotation
   JOINT Chest3
   {
    OFFSET 0.000000 10.554800 0.000000
    CHANNELS 3 Yrotation Xrotation Zrotation
    JOINT Chest4
    {
     OFFSET 0.000000 10.544000 0.000000
     CHANNELS 3 Yrotation Xrotation Zrotation
     JOINT Neck
     {
      OFFSET 0.000000 16.186500 0.000000
      CHANNELS 3 Yrotation Xrotation Zrotation
      JOINT Head
      {
       OFFSET 0.000000 9.876700 0.062400
       CHANNELS 3 Yrotation Xrotation Zrotation
       End Site
       {
        OFFSET 0.000000 18.635100 0.032900
       }
      }
     }
     JOINT RightCollar
     {
      OFFSET -3.550000 10.761000 0.000000
      CHANNELS 3 Yrotation Xrotation Zrotation
      JOINT RightShoulder
      {
       OFFSET -16.915100 0.000000 0.000000
       CHANNELS 3 Yrotation Xrotation Zrotation
       JOINT RightElbow
       {
        OFFSET 0.000000 -31.241900 0.000000
        CHANNELS 3 Yrotation Xrotation Zrotation
        JOINT RightWrist
        {
         OFFSET 0.000000 -25.690800 0.013700
         CHANNELS 3 Yrotation Xrotation Zrotation
         End Site
         {
          OFFSET 0.000000 -19.336200 0.000000
         }
        }
       }
      }
     }
     JOINT LeftCollar
     {
      OFFSET 3.550000 10.761000 0.000000
      CHANNELS 3 Yrotation Xrotation Zrotation
      JOINT LeftShoulder
      {
       OFFSET 16.915100 0.000000 0.000000
       CHANNELS 3 Yrotation Xrotation Zrotation
       JOINT LeftElbow
       {
        OFFSET 0.000000 -31.241900 0.000000
        CHANNELS 3 Yrotation Xrotation Zrotation
        JOINT LeftWrist
        {
         OFFSET 0.000000 -25.690800 0.013700
         CHANNELS 3 Yrotation Xrotation Zrotation
         End Site
         {
          OFFSET 0.000000 -19.336200 0.000000
         }
        }
       }
      }
     }
    }
   }
  }
 }
 JOINT RightHip
 {
  OFFSET -13.350800 0.071600 0.007200
  CHANNELS 3 Yrotation Xrotation Zrotation
  JOINT RightKnee
  {
   OFFSET 0.000000 -49.946400 0.002700
   CHANNELS 3 Yrotation Xrotation Zrotation
   JOINT RightAnkle
   {
    OFFSET 0.000000 -42.233900 0.021900
    CHANNELS 3 Yrotation Xrotation Zrotation
    JOINT RightToe
    {
     OFFSET 0.000000 -11.862800 19.724700
     CHANNELS 3 Yrotation Xrotation Zrotation
     End Site
     {
      OFFSET 0.000000 -1.715400 7.529500
     }
    }
   }
  }
 }
 JOINT LeftHip
 {
  OFFSET 13.350800 0.071600 0.007200
  CHANNELS 3 Yrotation Xrotation Zrotation
  JOINT LeftKnee
  {
   OFFSET 0.000000 -49.946400 0.002700
   CHANNELS 3 Yrotation Xrotation Zrotation
   JOINT LeftAnkle
   {
    OFFSET 0.000000 -42.233900 0.021900
    CHANNELS 3 Yrotation Xrotation Zrotation
    JOINT LeftToe
    {
     OFFSET 0.000000 -11.862800 19.724700
     CHANNELS 3 Yrotation Xrotation Zrotation
     End Site
     {
      OFFSET 0.000000 -1.715400 7.529500
     }
    }
   }
  }
 }
}
MOTION
Frames: 15
Frame Time: 0.008333
56.139394 130.709300 38.076859 -178.269766 -23.833252 -3.005931 -3.155189 9.455287 2.665834 -0.208194 0.584178 0.181380 -0.342566 1.014961 0.312094 -2.937738 8.733120 2.493688 -4.500824 19.417163 2.619345 -5.487910 -5.034921 3.894251 2.471897 5.942533 -3.943987 -1.921376 -9.588073 -9.811385 177.502411 -62.554071 -163.212072 -9.715758 -30.169090 -40.984842 -2.331189 8.852285 0.771415 10.784794 -7.297360 -1.929600 -155.579495 -43.591415 155.534686 -2.238581 -18.557687 42.114903 0.039702 -47.911070 -0.521565 -166.589668 71.491417 -156.709844 -0.616614 -33.614906 -2.298699 -0.000386 -0.007897 -0.000232 -10.976504 -45.062063 7.499573 158.368337 70.455854 152.454859 0.555619 -34.840169 -2.811628 -0.000939 0.003749 -0.000565
56.138746 130.709518 38.077914 -178.262469 -23.835380 -3.008596 -3.145529 9.461900 2.669445 -0.195542 0.589964 0.179809 -0.357756 1.010502 0.311890 -2.917105 8.750082 2.492663 -4.518746 19.408496 2.618840 -5.467544 -5.003953 3.860115 2.457657 5.919533 -3.935934 -1.906216 -9.571757 -9.805313 177.419676 -62.542331 -163.160562 -9.660958 -30.139581 -40.967499 -2.348714 8.869067 0.748980 10.765900 -7.298923 -1.953301 -155.547815 -43.590629 155.498441 -2.238218 -18.557815 42.083021 0.036382 -47.906698 -0.522870 -166.595918 71.491549 -156.716545 -0.619996 -33.621745 -2.299159 -0.000619 -0.006201 -0.000372 -10.972698 -45.060397 7.496129 158.363576 70.451483 152.454863 0.552202 -34.845905 -2.814866 -0.002226 0.002669 -0.001339
56.138021 130.709853 38.079033 -178.252548 -23.838312 -3.011458 -3.135845 9.470988 2.668851 -0.202084 0.587751 0.182201 -0.357620 1.011281 0.312150 -2.914158 8.753915 2.494394 -4.517768 19.419060 2.607769 -5.477343 -5.015847 3.871899 2.465770 5.913346 -3.931343 -1.896187 -9.557380 -9.792005 177.241232 -62.532235 -163.011381 -9.657662 -30.130983 -40.959210 -2.355088 8.874373 0.737274 10.760337 -7.274837 -1.994005 -155.515403 -43.585521 155.460804 -2.242160 -18.497015 42.042839 0.032981 -47.900222 -0.526271 -166.596726 71.490092 -156.716741 -0.620997 -33.630802 -2.300131 -0.001229 -0.003423 -0.000739 -10.970575 -45.058410 7.491317 158.341976 70.449429 152.440018 0.545707 -34.847676 -2.818588 -0.002407 0.002242 -0.001447
56.137809 130.709721 38.081567 -178.237050 -23.836477 -3.017559 -3.145234 9.471274 2.669377 -0.194241 0.590078 0.184178 -0.357592 1.012025 0.312464 -2.919739 8.752896 2.494443 -4.505760 19.441408 2.593037 -5.478250 -5.012208 3.863301 2.467897 5.911398 -3.929617 -1.835458 -9.534193 -9.780585 177.014280 -62.520302 -162.842400 -9.681378 -30.142105 -40.972605 -2.355057 8.880832 0.726681 10.757474 -7.249084 -2.036740 -155.486064 -43.577082 155.427401 -2.253944 -18.516730 42.023548 0.021103 -47.902113 -0.523786 -166.579019 71.489951 -156.703126 -0.622658 -33.629893 -2.298038 -0.001863 -0.003419 -0.001120 -10.966099 -45.064238 7.483855 158.308672 70.447850 152.420603 0.536258 -34.846482 -2.822860 -0.003020 0.002339 -0.001816
56.138689 130.709596 38.084404 -178.230283 -23.834735 -3.023160 -3.127504 9.474148 2.679880 -0.204519 0.587607 0.182613 -0.363638 1.011610 0.311832 -2.919817 8.754571 2.495095 -4.495655 19.460999 2.581054 -5.453137 -4.958880 3.818851 2.485035 5.913205 -3.923776 -1.804291 -9.522507 -9.781661 176.793608 -62.511050 -162.644860 -9.680947 -30.142940 -40.981601 -2.353413 8.884972 0.717677 10.750995 -7.224755 -2.078690 -155.461455 -43.566184 155.402578 -2.267741 -18.529931 42.002102 0.016290 -47.904249 -0.516893 -166.561923 71.491103 -156.683750 -0.626419 -33.629511 -2.299905 0.000688 -0.001407 0.000414 -10.957163 -45.070606 7.486498 158.297141 70.449430 152.420532 0.526821 -34.841843 -2.823913 -0.001036 0.000338 -0.000623
56.137887 130.710051 38.085846 -178.218455 -23.838950 -3.024196 -3.125715 9.478875 2.678758 -0.207678 0.587411 0.182034 -0.366604 1.013207 0.313026 -2.901211 8.765723 2.496180 -4.506048 19.464949 2.574817 -5.447253 -4.944837 3.810202 2.483375 5.904761 -3.914247 -1.780239 -9.514640 -9.789746 176.684980 -62.507071 -162.553452 -9.667154 -30.109606 -40.909133 -2.366457 8.877549 0.712928 10.740528 -7.202945 -2.118666 -155.437746 -43.537701 155.371993 -2.273750 -18.514330 41.992254 0.024580 -47.902581 -0.526054 -166.551271 71.486982 -156.671772 -0.632692 -33.627965 -2.289806 0.000963 -0.002137 0.000579 -10.957867 -45.068155 7.481802 158.297026 70.454471 152.419675 0.528757 -34.839558 -2.828054 -0.000851 0.001334 -0.000512
56.138123 130.710899 38.086649 -178.212095 -23.846450 -3.025935 -3.127800 9.485989 2.677453 -0.204835 0.587853 0.181727 -0.356617 1.014608 0.312657 -2.914032 8.765718 2.497483 -4.504405 19.469530 2.572668 -5.444966 -4.939869 3.807472 2.489352 5.906060 -3.909105 -1.741414 -9.501910 -9.798463 176.592538 -62.504386 -162.465352 -9.673961 -30.111427 -40.888710 -2.355336 8.881238 0.706842 10.726828 -7.184184 -2.154592 -155.415879 -43.513477 155.344691 -2.282019 -18.488062 41.993719 0.025918 -47.895888 -0.528038 -166.530521 71.488828 -156.651405 -0.630482 -33.622915 -2.290517 -0.000180 -0.001596 -0.000108 -10.952154 -45.062291 7.477527 158.303792 70.457965 152.430903 0.530967 -34.837498 -2.833976 0.000555 0.001818 0.000334
56.137987 130.711362 38.088232 -178.216858 -23.851886 -3.021008 -3.121993 9.490291 2.672732 -0.203847 0.588718 0.183119 -0.353486 1.016249 0.313288 -2.905582 8.767340 2.494012 -4.495868 19.490976 2.565745 -5.434338 -4.916427 3.798180 2.485777 5.904058 -3.899171 -1.702602 -9.486826 -9.811252 176.542393 -62.503777 -162.418213 -9.672021 -30.111084 -40.863139 -2.360600 8.879802 0.708786 10.719595 -7.164703 -2.189781 -155.405953 -43.508202 155.332926 -2.297927 -18.487050 41.982774 0.040750 -47.894873 -0.532913 -166.501945 71.488100 -156.627896 -0.625829 -33.617064 -2.284537 -0.003685 -0.000224 -0.002216 -10.938759 -45.057078 7.473947 158.326937 70.473842 152.448010 0.536479 -34.830299 -2.823769 -0.000925 0.003319 -0.000557
56.138465 130.711593 38.090395 -178.214491 -23.854966 -3.020454 -3.114990 9.495021 2.674896 -0.209504 0.587612 0.181921 -0.353018 1.017012 0.312906 -2.900028 8.773424 2.494667 -4.466169 19.535965 2.546955 -5.440896 -4.919763 3.806483 2.509066 5.906577 -3.891172 -1.710589 -9.486912 -9.821405 176.523929 -62.507214 -162.372286 -9.666815 -30.107166 -40.841615 -2.360608 8.875943 0.704553 10.713173 -7.149644 -2.218943 -155.407002 -43.500253 155.337839 -2.294482 -18.454048 41.975524 0.043142 -47.896659 -0.531489 -166.470504 71.487439 -156.597446 -0.625931 -33.609397 -2.280855 -0.001431 -0.002010 -0.000860 -10.929858 -45.055496 7.472641 158.333477 70.484536 152.455544 0.531565 -34.824272 -2.818701 0.001528 0.005298 0.000919
56.137703 130.711862 38.092393 -178.212021 -23.858958 -3.015196 -3.117330 9.498984 2.668504 -0.206729 0.588787 0.182099 -0.355479 1.016088 0.312811 -2.889698 8.779043 2.495703 -4.466536 19.542053 2.542988 -5.420366 -4.886803 3.784595 2.511898 5.905031 -3.891335 -1.700900 -9.483151 -9.826055 176.501710 -62.508247 -162.324765 -9.664205 -30.098979 -40.818120 -2.336245 8.882935 0.686424 10.678330 -7.158466 -2.213218 -155.419810 -43.512006 155.360062 -2.289409 -18.455933 41.959351 0.047448 -47.894113 -0.538096 -166.458076 71.489937 -156.589265 -0.626836 -33.606795 -2.276466 -0.002791 0.000297 -0.001679 -10.915425 -45.057276 7.463936 158.344951 70.496499 152.461971 0.527490 -34.812696 -2.807196 -0.001141 0.002517 -0.000686
56.138697 130.712205 38.094449 -178.210504 -23.863087 -3.015608 -3.110832 9.503970 2.671442 -0.206484 0.589225 0.181935 -0.355240 1.016983 0.312669 -2.886061 8.783302 2.493888 -4.466255 19.547434 2.540715 -5.396038 -4.855364 3.763909 2.514701 5.902835 -3.891528 -1.645481 -9.460494 -9.834439 176.412604 -62.493278 -162.264298 -9.662594 -30.093144 -40.811635 -2.336139 8.880766 0.679208 10.670151 -7.156332 -2.217936 -155.476435 -43.539053 155.434801 -2.313163 -18.467609 41.920100 0.043051 -47.894821 -0.523212 -166.416188 71.492277 -156.557288 -0.637802 -33.596400 -2.265671 -0.000375 0.000122 -0.000226 -10.917908 -45.056073 7.470156 158.360309 70.500387 152.467798 0.522664 -34.808649 -2.796707 -0.002255 0.002621 -0.001356
56.138439 130.713033 38.095479 -178.205088 -23.871684 -3.013502 -3.102170 9.511371 2.668484 -0.211651 0.589033 0.183633 -0.354873 1.017419 0.312437 -2.882446 8.786172 2.492136 -4.443334 19.584900 2.521457 -5.401711 -4.856691 3.774753 2.516082 5.905356 -3.890043 -1.626046 -9.449810 -9.836769 176.329596 -62.478588 -162.181167 -9.666664 -30.096849 -40.838974 -2.343349 8.880103 0.676624 10.671942 -7.151186 -2.239719 -155.494842 -43.531980 155.446426 -2.325752 -18.467819 41.903468 0.043750 -47.887353 -0.526756 -166.410928 71.494325 -156.558872 -0.641434 -33.592890 -2.256540 -0.003556 0.000456 -0.002139 -10.920781 -45.050253 7.468932 158.369958 70.502923 152.468077 0.516913 -34.805701 -2.788549 -0.002468 0.002736 -0.001484
56.138227 130.714039 38.096388 -178.199845 -23.881663 -3.011996 -3.105298 9.521467 2.663973 -0.206325 0.590020 0.181674 -0.354571 1.018439 0.312058 -2.880488 8.791083 2.488253 -4.434861 19.598262 2.519011 -5.365121 -4.806824 3.744866 2.521025 5.902661 -3.881053 -1.606248 -9.437436 -9.840524 176.261293 -62.464263 -162.132167 -9.642167 -30.068823 -40.728563 -2.345611 8.877311 0.678913 10.683916 -7.131872 -2.276822 -155.506875 -43.496970 155.437859 -2.310348 -18.454531 41.904431 0.042684 -47.879981 -0.525468 -166.399078 71.492694 -156.555201 -0.647405 -33.589589 -2.247698 -0.004658 0.000013 -0.002801 -10.920904 -45.041824 7.463777 158.372006 70.504347 152.467295 0.514696 -34.806658 -2.791941 -0.002351 0.003638 -0.001414
56.137550 130.714472 38.098844 -178.192229 -23.886583 -3.010330 -3.104079 9.525202 2.657509 -0.199854 0.591141 0.180359 -0.354658 1.020824 0.311379 -2.879788 8.800859 2.480726 -4.432888 19.606681 2.523876 -5.364884 -4.809566 3.751565 2.514302 5.891113 -3.865367 -1.595946 -9.431108 -9.843083 176.198053 -62.454148 -162.071822 -9.591458 -30.051346 -40.668055 -2.347238 8.867147 0.687673 10.678190 -7.130315 -2.277945 -155.512869 -43.488836 155.439878 -2.287602 -18.458524 41.920114 0.040762 -47.878350 -0.524926 -166.378355 71.488242 -156.540468 -0.649833 -33.587253 -2.247741 -0.002139 -0.000029 -0.001286 -10.928323 -45.044830 7.463813 158.353318 70.502675 152.440683 0.506447 -34.794375 -2.792174 -0.003327 0.001831 -0.002001
56.137656 130.714995 38.101431 -178.190516 -23.892052 -3.009719 -3.098396 9.530848 2.657404 -0.201081 0.589201 0.177294 -0.354735 1.022489 0.311179 -2.876726 8.811437 2.475267 -4.430114 19.615798 2.522325 -5.361555 -4.811883 3.757560 2.513261 5.881475 -3.854354 -1.585505 -9.425114 -9.847085 176.065914 -62.434142 -161.937013 -9.548806 -30.042836 -40.651021 -2.342643 8.861372 0.689040 10.672318 -7.131810 -2.276198 -155.540360 -43.483103 155.472584 -2.290340 -18.460774 41.926033 0.040529 -47.876118 -0.523119 -166.358866 71.485048 -156.524970 -0.650318 -33.583865 -2.245068 -0.002498 0.000752 -0.001502 -10.934313 -45.043573 7.468261 158.348623 70.498829 152.430888 0.501560 -34.790755 -2.794615 -0.003004 0.002171 -0.001806
